<svg width="102" height="90" viewBox="0 0 102 90" fill="none" xmlns="http://www.w3.org/2000/svg">
<path d="M12.5391 27.1309L27.5781 22.7363C28.7826 24.2337 29.6289 25.6497 30.1172 26.9844C30.9961 29.2956 31.6146 32.4857 31.9727 36.5547C32.6562 44.5625 33.1283 53.1074 33.3887 62.1895C36.8717 57.5996 40.8594 51.5286 45.3516 43.9766C46.7188 41.6979 47.4023 39.5495 47.4023 37.5312C47.4023 36.2617 46.6048 35.0573 45.0098 33.918C43.4473 32.7786 42.4707 31.8997 42.0801 31.2812C41.6895 30.6302 41.4941 29.8001 41.4941 28.791C41.4941 27.1634 42.0801 25.7474 43.252 24.543C44.4564 23.3385 45.9049 22.7363 47.5977 22.7363C49.388 22.7363 50.9342 23.4199 52.2363 24.7871C53.571 26.1543 54.2383 27.7656 54.2383 29.6211C54.2383 31.8021 53.6198 34.3411 52.3828 37.2383C51.1784 40.1029 48.3301 45.0345 43.8379 52.0332C38.0762 60.985 32.4284 68.7324 26.8945 75.2754C23.3464 79.4421 20.4818 82.4368 18.3008 84.2598C16.1198 86.1152 13.8574 87.5801 11.5137 88.6543C10.1139 89.2728 8.73047 89.582 7.36328 89.582C5.50781 89.582 3.92904 88.931 2.62695 87.6289C1.29232 86.3268 0.625 84.7806 0.625 82.9902C0.625 81.1999 1.22721 79.6862 2.43164 78.4492C3.60352 77.2122 4.98698 76.5938 6.58203 76.5938C8.56771 76.5938 10.3906 77.6354 12.0508 79.7188C13.1576 81.1185 14.069 81.8184 14.7852 81.8184C15.5339 81.8184 16.2663 81.6068 16.9824 81.1836C17.959 80.6628 19.3262 79.4583 21.084 77.5703C21.2793 73.5013 21.377 70.4251 21.377 68.3418C21.377 65.5423 21.2467 61.6035 20.9863 56.5254L20.1562 37.9219C19.8633 34.5039 19.1309 32.0462 17.959 30.5488C17.0475 29.4421 15.8594 28.8887 14.3945 28.8887C13.8411 28.8887 13.2227 28.9375 12.5391 29.0352V27.1309ZM86.0254 0.275391L77.5781 29.7188C80.1497 26.9193 82.2982 25.0638 84.0234 24.1523C85.7487 23.2083 87.6204 22.7363 89.6387 22.7363C93.5449 22.7363 96.4583 24.1523 98.3789 26.9844C100.332 29.7839 101.309 33.0228 101.309 36.7012C101.309 45.4902 98.1185 53.3353 91.7383 60.2363C86.0742 66.3236 79.6289 69.3672 72.4023 69.3672C67.0312 69.3672 61.3509 67.7884 55.3613 64.6309L70.3027 12.8242C71.0189 10.3828 71.377 8.70638 71.377 7.79492C71.377 7.01367 71.0514 6.39518 70.4004 5.93945C69.4889 5.28841 68.1055 5.01172 66.25 5.10938L66.7871 3.15625L83.0957 0.275391H86.0254ZM67.2754 65.1191C68.8053 66.0957 70.1888 66.584 71.4258 66.584C73.151 66.584 74.5996 66.2422 75.7715 65.5586C77.627 64.4518 79.5638 62.4499 81.582 59.5527C83.6328 56.6556 85.3418 53.1562 86.709 49.0547C88.0762 44.9531 88.7598 40.8678 88.7598 36.7988C88.7598 34.4876 88.2389 32.7298 87.1973 31.5254C86.1556 30.321 84.9512 29.7188 83.584 29.7188C81.3053 29.7188 79.3197 30.8255 77.627 33.0391C76.4876 34.4714 75.2507 37.515 73.916 42.1699L67.2754 65.1191Z" fill="white"/>
</svg>
